HIERARCHY
ROOT hip
{
  OFFSET 0 0 0
  CHANNELS 6 Xposition Yposition Zposition Zrotation Xrotation Yrotation
  JOINT abdomen
  {
    OFFSET 0 3.00213 0.00105793
    CHANNELS 3 Zrotation Xrotation Yrotation
    JOINT chest
    {
      OFFSET 0 10.6995 -0.00105746
      CHANNELS 3 Zrotation Xrotation Yrotation
      JOINT neck
      {
        OFFSET 0 12.0281 0.000564911
        CHANNELS 3 Zrotation Xrotation Yrotation
        JOINT head
        {
          OFFSET 0 2.32428 0.00185087
          CHANNELS 3 Zrotation Xrotation Yrotation
          End Site
          {
            OFFSET 0 8.33755 -1.1198e-005
          }
        }
      }
      JOINT lCollar
      {
        OFFSET 4.14228 8.71331 -1.74819
        CHANNELS 3 Zrotation Xrotation Yrotation
        JOINT lShldr
        {
          OFFSET 3.19849 0 0
          CHANNELS 3 Zrotation Xrotation Yrotation
          JOINT lForeArm
          {
            OFFSET 11.2674 0.131798 0.138381
            CHANNELS 3 Zrotation Xrotation Yrotation
            JOINT lHand
            {
              OFFSET 10.4338 -0.0789642 2.11788
              CHANNELS 3 Zrotation Xrotation Yrotation
              End Site
              {
                OFFSET 5.53607 0.395142 1.59885
              }
            }
          }
        }
      }
      JOINT rCollar
      {
        OFFSET -4.14228 8.71331 -1.74819
        CHANNELS 3 Zrotation Xrotation Yrotation
        JOINT rShldr
        {
          OFFSET -3.19849 0 0
          CHANNELS 3 Zrotation Xrotation Yrotation
          JOINT rForeArm
          {
            OFFSET -11.2674 0.131798 0.138381
            CHANNELS 3 Zrotation Xrotation Yrotation
            JOINT rHand
            {
              OFFSET -10.4338 -0.0789642 2.11792
              CHANNELS 3 Zrotation Xrotation Yrotation
              End Site
              {
                OFFSET -5.53607 0.395142 1.59887
              }
            }
          }
        }
      }
    }
  }
  JOINT lThigh
  {
    OFFSET 4.31922 0 0
    CHANNELS 3 Zrotation Xrotation Yrotation
    JOINT lShin
    {
      OFFSET -1.08433 -20.0141 1.65244
      CHANNELS 3 Zrotation Xrotation Yrotation
      JOINT lFoot
      {
        OFFSET -1.03648 -19.1308 -1.65247
        CHANNELS 3 Zrotation Xrotation Yrotation
        JOINT lToe
        {
          OFFSET 0 -3.25315 5.51378
          CHANNELS 3 Zrotation Xrotation Yrotation
          End Site
          {
            OFFSET 0 0 2.70295
          }
        }
      }
    }
  }
  JOINT rThigh
  {
    OFFSET -4.31922 0 0
    CHANNELS 3 Zrotation Xrotation Yrotation
    JOINT rShin
    {
      OFFSET 1.08434 -20.0141 1.6524
      CHANNELS 3 Zrotation Xrotation Yrotation
      JOINT rFoot
      {
        OFFSET 1.03648 -19.1308 -1.65242
        CHANNELS 3 Zrotation Xrotation Yrotation
        JOINT rToe
        {
          OFFSET 0 -3.25315 5.51378
          CHANNELS 3 Zrotation Xrotation Yrotation
          End Site
          {
            OFFSET 0 0 2.70295
          }
        }
      }
    }
  }
}
MOTION
Frames:	14
Frame Time:	0.0333333
-1.91686 38.569 -0.0613223 3.08367 -4.22595 -1.79032 -9.0261 23.7014 0.663767 -0.0383015 2.12035 -2.07649 -1.02453e-005 -1.19528e-005 3.41509e-006 -0.0314661 -23.2339 8.36793 -3.41783 0.493904 -8.21303 -46.9423 13.3657 -11.3593 -4.71714 6.37517 -102.762 0.473528 -0.913895 2.64541 9.86108 1.61259 9.19592 91.8015 -5.65414 -69.5989 3.76894 0.735355 43.6409 -0.755041 -0.635443 0.765247 19.2881 -0.0519013 3.86947 1.97967 52.3488 -4.0267 -1.78906e-015 6.36111e-015 3.97569e-016 -5.11839 -20.6833 -0.903502 -32.5831 -31.0787 -36.3153 -166.036 73.3175 169.584 -1.06722e-006 -1.70755e-006 -4.26887e-007 -3.11332 -3.02722 5.53728 
-1.82542 39.0078 0.488622 -0.342819 -5.04941 -3.1697 -5.37753 23.3309 -4.45954 -0.106469 2.05069 -2.79172 -2.13443e-005 -1.8783e-005 1.70755e-006 0.804143 -21.6779 12.2116 1.16935 -0.159914 -7.78592 -57.3785 3.16233 -10.3603 -4.52515 6.83536 -107.711 0.569569 -0.237516 2.6152 6.10939 1.09905 10.1596 88.528 -10.9838 -73.0655 3.96811 0.995147 46.8745 -0.416767 -0.761432 0.804561 28.1914 9.48064 -0.815904 1.3488 45.7936 -3.19302 -1.70755e-006 1.70755e-006 3.41509e-006 -7.02307 -8.4248 -1.6093 -30.8265 -30.4883 -37.5808 -81.4074 86.8844 84.5005 -4.26887e-007 1.70755e-006 -0 -6.66807 -8.566 7.1942 
-1.43325 39.3374 1.04614 -2.94609 -6.0607 -4.92021 -2.06919 22.6169 -8.04235 -0.101201 1.97065 -3.34427 -2.81745e-005 -1.70755e-006 2.13443e-007 1.5172 -19.3026 17.0043 2.8551 -0.422835 -8.41731 -63.007 -7.54908 -11.5768 -4.38614 7.11196 -110.784 0.655831 -0.138947 2.62697 0.849527 0.122633 8.21356 82.6952 -13.7205 -77.3255 4.24581 1.41679 51.8614 0.013574 -0.972566 0.940336 35.5469 18.5418 -6.29397 0.869801 38.6304 -2.4815 -2.38542e-015 1.70755e-006 1.59028e-015 -8.11797 8.53097 -1.93974 -28.7982 -28.9512 -39.8971 -6.71061 71.4899 9.31326 1.59028e-013 1.70755e-006 -5.33608e-006 -6.84725 -11.7569 11.9091 
-1.02344 39.5108 1.48133 -4.45735 -6.73818 -6.88623 0.263165 21.9529 -10.2408 -0.047898 1.8838 -3.73788 -2.86014e-005 0 -2.56132e-006 1.45777 -16.8978 22.0694 3.57388 -0.558966 -8.8778 -64.2397 -14.0406 -11.9656 -4.32736 7.21869 -111.994 0.493274 -0.715839 2.59733 -1.90688 -0.210545 6.29873 74.3825 -15.9666 -80.5409 4.48235 1.85379 56.7684 0.500386 -1.24943 1.14848 40.0721 26.0086 -13.4577 0.723009 35.7936 -2.23885 2.56132e-006 -1.70755e-006 -4.77083e-015 -9.12242 18.6176 -2.5316 -25.2268 -26.3838 -41.147 -1.86987 51.3661 3.88691 4.26887e-007 -3.41509e-006 4.53567e-007 -4.03807 -12.9759 17.4031 
-0.663916 39.4964 1.74168 -4.65818 -7.05506 -8.87854 1.42021 21.4747 -11.1136 0.0517617 1.79257 -3.96749 -1.70755e-005 7.68396e-006 5.97642e-006 0.507226 -14.7503 27.424 3.7591 -0.584536 -8.82613 -60.8678 -14.5898 -10.1766 -4.36302 7.15456 -111.265 -0.001769 -2.091 2.50794 -0.824188 -0.0743722 5.15638 63.5505 -18.6924 -83.0151 4.66066 2.25817 61.1321 1.03669 -1.59196 1.43057 40.9119 31.7376 -22.4882 0.889557 38.9834 -2.51304 -1.70755e-006 1.70755e-006 -3.18055e-015 -10.4388 17.8804 -3.32733 -19.9107 -22.8605 -40.9784 -0.426416 28.4471 1.68199 4.00206e-007 -7.95139e-016 -1.20395e-006 0.773945 -11.8738 22.6334 
-0.471399 39.4449 1.87154 -4.55114 -7.04943 -10.9472 2.18328 21.0275 -11.0717 0.167544 1.71035 -4.05483 -2.00637e-005 -1.19528e-005 7.68396e-006 -0.429167 -12.8626 30.9252 3.92514 -0.615342 -8.89572 -57.6804 -11.7286 -6.48341 -4.52277 6.84061 -107.768 -0.509969 -2.64801 2.09256 2.88528 0.207598 4.11206 53.7704 -20.9264 -84.2863 4.76032 2.5293 63.9838 1.44272 -1.87022 1.65061 41.8566 34.7368 -24.97 1.4712 47.2645 -3.36171 1.4941e-006 -6.4033e-007 1.59028e-015 -9.83658 17.2223 -4.14085 -14.2406 -19.0445 -39.2036 -0.0271289 7.54492 0.411166 1.28066e-006 -1.70755e-006 1.06722e-006 5.79854 -10.4351 25.2327 
-0.422742 39.3475 1.90144 -4.22931 -6.85291 -13.1317 2.58726 20.7059 -10.0016 0.292919 1.64069 -4.01101 -1.64351e-005 2.56132e-006 -1.06722e-006 -1.28239 -11.2431 32.5434 4.06121 -0.651634 -9.1003 -55.3148 -5.89786 -1.72238 -4.7519 6.27776 -101.736 -0.96698 -2.47132 1.38447 8.69795 0.469899 3.0686 45.5287 -22.66 -84.3933 4.8136 2.69408 65.6935 1.71337 -2.09106 1.82097 42.2971 35.5169 -21.5831 3.08188 59.8492 -5.3518 2.34788e-006 -1.28066e-006 -7.95139e-016 -7.23121 16.303 -3.78237 -9.19783 -15.3978 -36.4823 -0.0351573 -8.58359 -0.468561 1.4941e-006 -5.12264e-006 -6.4033e-007 9.456 -9.89853 25.7064 
-0.403629 39.1611 1.98399 -4.1151 -6.96101 -15.5369 2.63618 20.8936 -7.24906 0.393211 1.60208 -3.89415 -1.67553e-005 -8.53774e-006 9.49823e-006 -2.27018 -10.0628 31.8758 4.10588 -0.690756 -9.53344 -54.891 0.265035 2.44738 -4.95507 5.53225 -94.0731 -1.07327 -1.92486 0.444334 14.2455 0.393182 1.54829 40.9054 -22.7269 -83.7126 4.87683 2.91586 67.9704 1.80627 -2.27528 1.99983 44.0769 35.5788 -17.8808 7.73052 73.2696 -10.3834 -1.70755e-006 -2.38542e-015 -3.41509e-006 -3.24167 13.5864 -1.67087 -8.98516 -15.9552 -35.0403 -0.00984555 -4.56034 -0.247596 -2.98821e-006 1.70755e-006 8.53774e-007 10.9287 -14.4321 25.3796 
-0.444455 38.8848 2.0682 -4.3278 -7.06936 -18.3895 2.56223 21.4528 -3.07658 0.482602 1.58345 -3.66803 -1.83028e-005 -8.53773e-006 8.5911e-006 -3.42614 -9.5182 29.6202 4.05332 -0.72168 -10.0787 -55.9886 6.54497 7.21259 -5.0636 4.63225 -85.0921 -0.87863 -1.19514 -0.578627 19.5271 0.0481084 0.135669 38.5102 -21.8559 -82.1907 4.94218 3.1903 70.7559 1.79392 -2.4447 2.20833 44.7692 35.3695 -13.3781 54.0688 86.3087 -57.1159 8.53774e-007 1.70755e-006 1.70755e-006 0.628135 9.05315 2.26793 -10.6626 -18.4114 -33.4624 -0.053331 10.5439 0.57779 2.56132e-006 -3.18055e-015 -3.30837e-006 10.2998 -21.2286 24.2889 
-0.593488 38.4824 2.13895 -5.07723 -6.91425 -21.6623 2.69422 22.2971 2.35779 0.577782 1.5555 -3.3196 4.69576e-006 -1.36604e-005 8.29761e-006 -5.29988 -9.75797 26.048 3.91645 -0.753186 -10.869 -58.4398 11.9798 13.696 -5.01577 3.61334 -74.9979 -0.293837 -0.579651 -1.44733 24.8876 -0.310005 -0.668208 35.6521 -20.1252 -80.5993 5.00566 3.54251 74.291 1.7461 -2.62764 2.57846 41.278 36.1689 -9.73242 163.77 76.2218 -167.236 9.54166e-015 3.41509e-006 3.18055e-015 2.23316 2.3131 5.0185 -11.7504 -21.0741 -30.9433 -0.492201 30.3237 1.816 4.26887e-007 -2.13443e-007 9.53825e-007 7.0864 -27.7547 21.6517 
-0.704608 38.0824 2.1099 -6.36117 -6.05732 -26.9574 2.88057 23.2617 8.85704 0.650905 1.60351 -2.75669 -1.25932e-005 -3.18055e-015 5.176e-006 -6.97682 -11.0685 23.3355 3.5789 -0.676689 -10.6933 -62.6262 17.1789 22.0173 -4.80987 2.68209 -65.5698 0.196558 -0.108566 -2.32127 26.3696 -0.297083 -0.599259 37.852 -20.3439 -75.5737 5.0539 3.98081 78.6481 1.72825 -2.83226 2.68665 35.2414 33.8799 -1.88429 169.791 64.0731 -173.602 -3.41509e-006 3.41509e-006 -1.70755e-006 3.14051 -3.12278 8.44639 -11.2366 -20.8328 -26.1798 -1.28845 45.0215 3.1081 4.26887e-007 8.53774e-007 2.44126e-006 2.97797 -31.1762 16.9355 
-0.704608 38.0824 2.1099 -6.36117 -6.05732 -26.9574 2.88057 23.2617 8.85704 0.650905 1.60351 -2.75669 -1.25932e-005 -3.18055e-015 5.176e-006 -6.97682 -11.0685 23.3355 3.5789 -0.676689 -10.6933 -62.6262 17.1789 22.0173 -4.80987 2.68209 -65.5698 0.196558 -0.108566 -2.32127 26.3696 -0.297083 -0.599259 37.852 -20.3439 -75.5737 5.0539 3.98081 78.6481 1.72825 -2.83226 2.68665 35.2414 33.8799 -1.88429 169.791 64.0731 -173.602 -3.41509e-006 3.41509e-006 -1.70755e-006 3.14051 -3.12278 8.44639 -11.2366 -20.8328 -26.1798 -1.28845 45.0215 3.1081 4.26887e-007 8.53774e-007 2.44126e-006 2.97797 -31.1762 16.9355 
-0.704608 38.0824 2.1099 -6.36117 -6.05732 -26.9574 2.88057 23.2617 8.85704 0.650905 1.60351 -2.75669 -1.25932e-005 -3.18055e-015 5.176e-006 -6.97682 -11.0685 23.3355 3.5789 -0.676689 -10.6933 -62.6262 17.1789 22.0173 -4.80987 2.68209 -65.5698 0.196558 -0.108566 -2.32127 26.3696 -0.297083 -0.599259 37.852 -20.3439 -75.5737 5.0539 3.98081 78.6481 1.72825 -2.83226 2.68665 35.2414 33.8799 -1.88429 169.791 64.0731 -173.602 -3.41509e-006 3.41509e-006 -1.70755e-006 3.14051 -3.12278 8.44639 -11.2366 -20.8328 -26.1798 -1.28845 45.0215 3.1081 4.26887e-007 8.53774e-007 2.44126e-006 2.97797 -31.1762 16.9355 
-0.704608 38.0824 2.1099 -6.36117 -6.05732 -26.9574 2.88057 23.2617 8.85704 0.650905 1.60351 -2.75669 -1.25932e-005 -3.18055e-015 5.176e-006 -6.97682 -11.0685 23.3355 3.5789 -0.676689 -10.6933 -62.6262 17.1789 22.0173 -4.80987 2.68209 -65.5698 0.196558 -0.108566 -2.32127 26.3696 -0.297083 -0.599259 37.852 -20.3439 -75.5737 5.0539 3.98081 78.6481 1.72825 -2.83226 2.68665 35.2414 33.8799 -1.88429 169.791 64.0731 -173.602 -3.41509e-006 3.41509e-006 -1.70755e-006 3.14051 -3.12278 8.44639 -11.2366 -20.8328 -26.1798 -1.28845 45.0215 3.1081 4.26887e-007 8.53774e-007 2.44126e-006 2.97797 -31.1762 16.9355 
